<svg id="Layer_1" data-name="Layer 1" xmlns="http://www.w3.org/2000/svg" viewBox="0 0 48 48"><defs><style>.cls-1{fill:#fbfbfb;}</style></defs><title>ABSOLUTE SECURITY</title><path class="cls-1" d="M24.55,2a6.26,6.26,0,0,1,2.31,1.56,17,17,0,0,0,8.83,4.1c.92.15,1.85.22,2.77.33a4.63,4.63,0,0,1,4.22,4.71c0,3.2.06,6.42-.1,9.62a28.16,28.16,0,0,1-3.16,12.1,22.23,22.23,0,0,1-7.45,8,31.39,31.39,0,0,1-6.76,3.31,3.18,3.18,0,0,1-2.15.06,27.37,27.37,0,0,1-10.88-6.58A22.77,22.77,0,0,1,6.42,28.59,44.59,44.59,0,0,1,5.31,17.85c0-1.66.08-3.32.06-5a4.8,4.8,0,0,1,4.71-4.94,19.16,19.16,0,0,0,6-1.27,16.91,16.91,0,0,0,5.08-3.07A6.49,6.49,0,0,1,23.52,2ZM8,17.52A40.46,40.46,0,0,0,8.9,27.87a20.09,20.09,0,0,0,6.53,10.89,25.69,25.69,0,0,0,8.34,4.59,1.12,1.12,0,0,0,.65,0,28.11,28.11,0,0,0,5.65-2.68,19.71,19.71,0,0,0,7.58-8.44A28.28,28.28,0,0,0,40,22.4a89.53,89.53,0,0,0,.08-9.83,2,2,0,0,0-1.79-2c-1.36-.2-2.73-.29-4.08-.56a19.39,19.39,0,0,1-9.62-5c-.56-.53-.58-.53-1.16,0a19.37,19.37,0,0,1-9.62,5c-1.32.26-2.66.35-4,.55A2,2,0,0,0,8,12.71C8,14.31,8,15.91,8,17.52Z"/><path class="cls-1" d="M24,13A11,11,0,1,1,13.07,24,11,11,0,0,1,24,13Zm0,2.58A8.39,8.39,0,1,0,32.41,24,8.41,8.41,0,0,0,24,15.62Z"/><path class="cls-1" d="M22.16,25.8a2.34,2.34,0,0,1,.29-.45c1.53-1.55,3.07-3.08,4.61-4.62a1.31,1.31,0,0,1,1.38-.45,1.27,1.27,0,0,1,.66,2,1.07,1.07,0,0,1-.14.16l-5.89,5.89a1.28,1.28,0,0,1-2,0c-.72-.71-1.44-1.43-2.15-2.16a1.3,1.3,0,0,1-.07-1.88,1.29,1.29,0,0,1,1.88.06C21.2,24.79,21.62,25.24,22.16,25.8Z"/></svg>