<svg id="Layer_1" data-name="Layer 1" xmlns="http://www.w3.org/2000/svg" viewBox="0 0 48 48"><defs><style>.cls-1{fill:#fbfbfb;}</style></defs><title>FOOD COURT</title><path class="cls-1" d="M45,29c-.49,1-1.45.68-2.31.76V41c0,1-.35,1.37-1.38,1.37H32.89c-.63,0-.92-.2-.93-.61s.29-.62.92-.62h8.54V29.74h-25c-.15,0-.3,0-.45,0a.59.59,0,0,1-.59-.61.57.57,0,0,1,.55-.6,2.24,2.24,0,0,1,.45,0H43.74V26.75H4.28v1.76H20.74a.63.63,0,0,1,.66.63.62.62,0,0,1-.66.59c-.3,0-8.27,0-8.57,0H6.58V41.18H34.76a3.38,3.38,0,0,1,.45,0,.58.58,0,0,1,.58.57.59.59,0,0,1-.57.63,2.75,2.75,0,0,1-.41,0H6.71c-1,0-1.38-.34-1.38-1.37V29.74c-.37,0-.72,0-1.07,0A1.08,1.08,0,0,1,3,28.52c0-.63,0-1.26,0-1.88a1.07,1.07,0,0,1,1.12-1.15H5.33V25c0-3.79,0-7.59,0-11.39A.84.84,0,0,0,5.05,13a2.38,2.38,0,0,1-.82-1.78c0-1.46,0-2.92,0-4.38A1.15,1.15,0,0,1,5.38,5.6H42.63a1.15,1.15,0,0,1,1.16,1.19c0,1.43,0,2.85,0,4.27a2.73,2.73,0,0,1-.91,2,.61.61,0,0,0-.19.41q0,5.92,0,11.85a1.05,1.05,0,0,0,0,.18c.28,0,.58,0,.87,0A1.27,1.27,0,0,1,45,26.3ZM6.59,13.74V25.46H9V25c0-1.83,0-3.66,0-5.49,0-1,.44-1.46,1.44-1.47H14c1,0,1.46.46,1.46,1.49,0,1.83,0,3.66,0,5.49v.44h13v-2a1.24,1.24,0,0,1,1.37-1.37h1.3V20.68l-.23,0a2,2,0,0,1-1.7-2.11,2,2,0,0,1,1.89-1.85,9.89,9.89,0,0,1,1.44,0A2,2,0,0,1,33,20.56a4.11,4.11,0,0,1-.53.13v1.43h.45c1.71,0,3.42,0,5.12,0a1.25,1.25,0,0,1,1.31,1.28c0,.23,0,.46,0,.69v1.36h2.1V13.74a3,3,0,0,1-2.51-1,2.76,2.76,0,0,1-4.25,0,2.78,2.78,0,0,1-4.27,0,2.76,2.76,0,0,1-2.15,1,2.87,2.87,0,0,1-2.12-1,2.73,2.73,0,0,1-2.12,1,2.79,2.79,0,0,1-2.13-1,2.81,2.81,0,0,1-2.15,1,2.85,2.85,0,0,1-2.11-1c-1.45,1.32-2.65,1.32-4.28,0a2.78,2.78,0,0,1-4.25,0A2.9,2.9,0,0,1,6.59,13.74Zm28.68-6.9c0,1.4,0,2.76,0,4.13a1.51,1.51,0,1,0,3,0c0-.26,0-3.81,0-4.06a.56.56,0,0,1,.6-.51.56.56,0,0,1,.58.53c0,.25,0,3.8,0,4.06a1.5,1.5,0,0,0,.65,1.26A1.51,1.51,0,0,0,42.56,11c0-1.33,0-2.65,0-4a.86.86,0,0,0,0-.21h-3C39.49,7.32,39.67,8,39,8s-.6-.68-.67-1.16ZM14.19,25.46V19.3H10.27v6.16Zm23.88-2.09H29.75v2.08h8.32ZM5.47,6.84c0,1.51,0,3,0,4.44A1.41,1.41,0,0,0,7,12.51a1.45,1.45,0,0,0,1.45-1.38c0-1.4,0-2.81,0-4.21,0,0,0,0-.06-.08Zm4.26,0c0,1.51,0,3,0,4.45a1.29,1.29,0,0,0,1,1.14,1.48,1.48,0,0,0,2-1.39c0-1.35,0-2.7,0-4,0,0,0-.09-.05-.15Zm4.26,0c0,1.51,0,3,0,4.45a1.49,1.49,0,0,0,3-.12c.05-1.42,0-2.84,0-4.25,0,0,0,0,0-.08Zm17,0c0,1.5,0,2.95,0,4.41a1.31,1.31,0,0,0,1,1.18A1.49,1.49,0,0,0,34,11c0-1.29,0-2.59,0-3.88a1,1,0,0,0,0-.24Zm-12.79,0c0,1.51,0,3,0,4.4a1.44,1.44,0,0,0,1.5,1.29,1.46,1.46,0,0,0,1.47-1.37c0-1.35,0-2.71,0-4.06,0-.09-.14-.25-.21-.25Zm4.29,0a.79.79,0,0,0-.05.13c0,1.37,0,2.74,0,4.1a1.35,1.35,0,0,0,.56,1.1,1.42,1.42,0,0,0,1.54.2A1.44,1.44,0,0,0,25.51,11c0-1.08,0-2.16,0-3.24V6.85Zm4.23,0c0,1.5,0,2.94,0,4.39a1.29,1.29,0,0,0,.9,1.16A1.5,1.5,0,0,0,29.77,11c0-1.3,0-2.59,0-3.89a1.14,1.14,0,0,0-.05-.24Zm5,12.58h0c.21,0,.43,0,.65,0a.74.74,0,0,0,.7-.73.71.71,0,0,0-.68-.77,11.45,11.45,0,0,0-1.31,0,.71.71,0,0,0-.69.76.72.72,0,0,0,.71.75C31.37,19.44,31.58,19.42,31.79,19.42Z"/><path class="cls-1" d="M24,31.46a4,4,0,1,1-4,4A4,4,0,0,1,24,31.46Zm0,1.23a2.78,2.78,0,1,0,2.79,2.78A2.79,2.79,0,0,0,24,32.69Z"/><path class="cls-1" d="M16.46,37.61c0-.21,0-.41,0-.62a1.45,1.45,0,0,0-.65-1.51,2.53,2.53,0,0,1,0-3.79,1.92,1.92,0,0,1,2.67.08,2.61,2.61,0,0,1-.53,4.05.54.54,0,0,0-.22.39c0,.92,0,1.83,0,2.75,0,.5-.25.79-.64.78s-.59-.29-.59-.78Zm1.49-4c0-.66-.41-1.18-.9-1.17a1.08,1.08,0,0,0-.86,1.17c0,.65.4,1.19.88,1.19S18,34.24,18,33.59Z"/><path class="cls-1" d="M30.53,37.53c0-.26,0-.52,0-.77,0-.57,0-1-.61-1.38A1.4,1.4,0,0,1,29.24,34c0-.74.09-1.49.16-2.24a.57.57,0,0,1,.65-.57.6.6,0,0,1,.56.72c0,.62-.1,1.25-.14,1.88s.25.84.68.83.68-.33.65-.85-.08-1.2-.12-1.8.15-.74.52-.78.65.18.69.67c.07.68.12,1.36.14,2a1.77,1.77,0,0,1-1,1.73.42.42,0,0,0-.26.44c0,.9,0,1.8,0,2.71,0,.12,0,.24,0,.36a.62.62,0,0,1-.62.59.6.6,0,0,1-.59-.61c0-.53,0-1.06,0-1.6Z"/></svg>