<svg id="Layer_1" data-name="Layer 1" xmlns="http://www.w3.org/2000/svg" viewBox="0 0 48 48"><defs><style>.cls-1{fill:#fbfbfb;}</style></defs><title>GAMING ZONES</title><path class="cls-1" d="M2.08,30.42c.06-.64.1-1.28.17-1.91a36.76,36.76,0,0,1,1.29-7.58,10.73,10.73,0,0,1,4.56-6c2-1.22,6.28-1.52,8.4,0a4,4,0,0,0,2.63.72c1.28,0,2.56,0,3.85,0h.51c0-1,0-1.92,0-2.85a1.36,1.36,0,0,1,.77-1.42c1.18-.69,2.31-1.46,3.49-2.16a1,1,0,0,0,.53-.95c0-.82,0-1.63.05-2.44a.73.73,0,0,1,1-.73.68.68,0,0,1,.47.7c0,1.17,0,2.34-.11,3.5a1.15,1.15,0,0,1-.5.73c-1.26.83-2.54,1.63-3.84,2.42a.73.73,0,0,0-.4.75c0,.79,0,1.59,0,2.43l.49,0c1,0,2.05,0,3.08,0a5.42,5.42,0,0,0,3.21-.84A7.21,7.21,0,0,1,36,13.84c3.92.18,6.36,2.39,7.94,5.78a18,18,0,0,1,1.34,5.06,47.9,47.9,0,0,1,.61,7.84,17.23,17.23,0,0,1-1,6,6.68,6.68,0,0,1-4.44,4.3A4,4,0,0,1,36,41.52a24.94,24.94,0,0,1-1.61-2.21c-.72-1.08-1.38-2.2-2.13-3.25a9.22,9.22,0,0,0-6.34-4c-4.37-.61-7.95.69-10.47,4.44-.73,1.09-1.39,2.22-2.12,3.32A14.66,14.66,0,0,1,12,41.57a4,4,0,0,1-4.39,1.22A6.8,6.8,0,0,1,2.93,38a16.79,16.79,0,0,1-.77-4.15c0-.22-.05-.42-.08-.63Zm1.48,1.7c.06.74.1,1.91.25,3.07a9.64,9.64,0,0,0,1.36,4.06,4.79,4.79,0,0,0,3.15,2.18,2.28,2.28,0,0,0,2.13-.49,11.43,11.43,0,0,0,1.47-1.71c.71-1,1.34-2.12,2-3.17a11.26,11.26,0,0,1,9.33-5.6,11.12,11.12,0,0,1,9.35,3.72,36.2,36.2,0,0,1,3.14,4.53,14.92,14.92,0,0,0,1.44,1.91,2.58,2.58,0,0,0,2.85.73,5.12,5.12,0,0,0,3.31-3.06,13.83,13.83,0,0,0,1-5,43.2,43.2,0,0,0-.53-8.19,18.63,18.63,0,0,0-1.41-5.17c-2-4.32-6.79-5.95-10.67-3.49a5,5,0,0,1-2.79.67c-3.31,0-6.62,0-9.93,0a5.28,5.28,0,0,1-3.24-.9c-1.88-1.33-5.69-1.13-7.61.38a9.81,9.81,0,0,0-3.46,5.51A45.46,45.46,0,0,0,3.56,32.12Z"/><path class="cls-1" d="M12.19,30.29a6.19,6.19,0,1,1,6.18-6.18A6.19,6.19,0,0,1,12.19,30.29Zm.06-10.88a4.69,4.69,0,1,0,4.64,4.77A4.71,4.71,0,0,0,12.25,19.41Z"/><path class="cls-1" d="M42,24.9a2.36,2.36,0,1,1-2.33-2.36A2.36,2.36,0,0,1,42,24.9Zm-3.19,0a.85.85,0,1,0,.83-.87A.8.8,0,0,0,38.81,24.92Z"/><path class="cls-1" d="M32.3,22.54A2.35,2.35,0,1,1,30,24.89,2.33,2.33,0,0,1,32.3,22.54Zm0,3.2a.85.85,0,1,0-.84-.83A.82.82,0,0,0,32.31,25.74Z"/><path class="cls-1" d="M38.33,29.54A2.35,2.35,0,1,1,36,27.17,2.36,2.36,0,0,1,38.33,29.54Zm-3.19-.05a.82.82,0,0,0,.82.89.85.85,0,0,0,.88-.85.82.82,0,0,0-.82-.85A.8.8,0,0,0,35.14,29.49Z"/><path class="cls-1" d="M38.33,20.27A2.35,2.35,0,1,1,36,17.92,2.35,2.35,0,0,1,38.33,20.27Zm-3.19,0a.81.81,0,0,0,.86.85.86.86,0,0,0,0-1.72A.81.81,0,0,0,35.14,20.28Z"/><path class="cls-1" d="M21.23,28.91c-.4,0-.8,0-1.2,0a.69.69,0,0,1-.7-.71.7.7,0,0,1,.71-.75c.81,0,1.63,0,2.44,0a.67.67,0,0,1,.69.72.68.68,0,0,1-.7.74c-.42,0-.83,0-1.24,0Z"/><path class="cls-1" d="M26.72,28.91c-.4,0-.8,0-1.2,0a.73.73,0,0,1,0-1.46c.83,0,1.66,0,2.48,0a.73.73,0,0,1,0,1.46c-.42,0-.85,0-1.28,0Z"/><path class="cls-1" d="M21.86,26.13c-.32,0-.63,0-.94,0a.69.69,0,0,1-.7-.76.67.67,0,0,1,.7-.71c.64,0,1.28,0,1.92,0a.65.65,0,0,1,.67.72.69.69,0,0,1-.67.74c-.33,0-.66,0-1,0Z"/><path class="cls-1" d="M26.13,26.13c-.31,0-.63,0-.94,0a.7.7,0,0,1-.69-.76.67.67,0,0,1,.7-.71c.64,0,1.28,0,1.92,0a.66.66,0,0,1,.67.73.69.69,0,0,1-.68.73C26.79,26.15,26.46,26.13,26.13,26.13Z"/><path class="cls-1" d="M13,23.37c.57,0,1.07,0,1.56,0s.82.27.83.72-.31.75-.84.76H13c0,.56,0,1.1,0,1.64a.72.72,0,0,1-.59.74.67.67,0,0,1-.82-.38,1.23,1.23,0,0,1-.09-.54c0-.47,0-.94,0-1.46H9.92c-.55,0-.86-.27-.87-.73s.3-.74.84-.75h1.42l.13-.06c0-.5,0-1,0-1.54a.75.75,0,1,1,1.5,0C13,22.26,13,22.79,13,23.37Z"/></svg>