<svg id="Layer_1" data-name="Layer 1" xmlns="http://www.w3.org/2000/svg" viewBox="0 0 48 48"><defs><style>.cls-1{fill:#fbfbfb;}</style></defs><title>ROOFTOP RESTAURANTS</title><path class="cls-1" d="M1.52,2.14A1.13,1.13,0,0,0,1.62,2a.9.9,0,0,1,1-.45.9.9,0,0,1,.65.93v9.37H4.86V2.78c0-.12,0-.24,0-.35a.89.89,0,0,1,.89-.9.88.88,0,0,1,.86.88c0,.29,0,.58,0,.87v8.58H8.2v-.49c0-2.88,0-5.76,0-8.64a3.23,3.23,0,0,1,0-.44.88.88,0,0,1,.88-.76.89.89,0,0,1,.85.75,3.2,3.2,0,0,1,0,.44v9.14h1.58V2.73a3.2,3.2,0,0,1,0-.44.87.87,0,0,1,1.73,0,2.2,2.2,0,0,1,0,.44V12.9a5.33,5.33,0,0,1-3,5c-.29.16-.25.35-.25.58V43.64a2.65,2.65,0,0,1-1.62,2.62,5.71,5.71,0,0,1-.58.21H7c-1.75-.66-2.2-1.32-2.2-3.22q0-12.39,0-24.78a.57.57,0,0,0-.36-.6,5.34,5.34,0,0,1-2.78-3.64l-.12-.41ZM3.31,13.66A3.66,3.66,0,0,0,5.62,16.5c.82.33.91.44.91,1.31V43.48c0,.81.29,1.22.86,1.23s.89-.41.89-1.24V17.8c0-.85.1-1,.89-1.29a3.58,3.58,0,0,0,2.22-2.43,2.63,2.63,0,0,0,.07-.42Z"/><path class="cls-1" d="M43.4,46.47A7.72,7.72,0,0,1,42,45.73a2.45,2.45,0,0,1-.84-2c0-4.12,0-8.25,0-12.37a1,1,0,0,0-.33-.8c-.48-.45-1-.92-1.4-1.4a4.36,4.36,0,0,1-1.25-3.09c0-4-.1-7.93,0-11.89A15.22,15.22,0,0,1,45,1.78a.9.9,0,0,1,1-.15.93.93,0,0,1,.5.94q0,20.58,0,41.16a2.62,2.62,0,0,1-2,2.67.77.77,0,0,0-.16.07ZM44.72,4.2l-.63.57A13.67,13.67,0,0,0,40,14.58c0,3.79,0,7.58,0,11.36a2.88,2.88,0,0,0,.88,2.13c.54.55,1.08,1.11,1.64,1.64A1.41,1.41,0,0,1,43,30.84q0,6.31,0,12.63c0,.83.31,1.25.9,1.24s.86-.42.86-1.23V4.2Z"/><path class="cls-1" d="M36.47,24A12.47,12.47,0,1,1,24,11.54,12.49,12.49,0,0,1,36.47,24ZM13.29,24A10.71,10.71,0,1,0,24,13.29,10.72,10.72,0,0,0,13.29,24Z"/><path class="cls-1" d="M24.46,40.78a17.26,17.26,0,0,1-9.4-2.58.92.92,0,0,1-.52-1,.77.77,0,0,1,.74-.7,1.36,1.36,0,0,1,.73.2,15.08,15.08,0,0,0,19.38-2.94c.15-.18.29-.37.46-.54A.84.84,0,0,1,37,33.18a.86.86,0,0,1,.15,1.18,4.45,4.45,0,0,1-.38.48A16.45,16.45,0,0,1,24.46,40.78Z"/><path class="cls-1" d="M23.33,7.21C28.65,7.29,32.66,9,36,12.27a1.51,1.51,0,0,1,.38.56.82.82,0,0,1-.39,1,.85.85,0,0,1-1-.13c-.47-.42-.9-.88-1.39-1.28a15.1,15.1,0,0,0-16.1-1.91l-.2.1a.89.89,0,0,1-1.23-.4A.84.84,0,0,1,16.46,9,29.36,29.36,0,0,1,20,7.72,29,29,0,0,1,23.33,7.21Z"/><path class="cls-1" d="M13.66,35.25a.85.85,0,0,1-.83.89.92.92,0,0,1-.94-.89.88.88,0,0,1,.87-.89A.93.93,0,0,1,13.66,35.25Z"/><path class="cls-1" d="M15.93,23.7a8,8,0,0,1,4.77-7.06.88.88,0,1,1,.74,1.59,6.28,6.28,0,0,0-3.76,5.71.88.88,0,1,1-1.75,0Z"/><path class="cls-1" d="M24,17.68a.85.85,0,0,1-.87-.89.86.86,0,0,1,.87-.86.89.89,0,0,1,.9.88A.87.87,0,0,1,24,17.68Z"/></svg>