<svg id="Layer_1" data-name="Layer 1" xmlns="http://www.w3.org/2000/svg" viewBox="0 0 48 48"><defs><style>.cls-1{fill:#fbfbfb;}</style></defs><title>THREE THEATERS</title><path class="cls-1" d="M1.35,39.82c.38-.76,1.11-.57,1.79-.62,0-1.05,0-2.08,0-3.11a4.16,4.16,0,0,1,.29-1.49,2.77,2.77,0,0,1,2.65-1.67c.35,0,.7,0,1.11,0V31.36a2.9,2.9,0,0,1,3.13-3.15c.91,0,1.82,0,2.74,0a3.32,3.32,0,0,1,2.87,1.06,3.48,3.48,0,0,1,3.11-1.06c.71,0,1.42,0,2.12,0a3.21,3.21,0,0,1,2.81,1c.2-.17.37-.33.55-.47a3,3,0,0,1,1.87-.55h2.92a3.18,3.18,0,0,1,2.76,1c.15-.14.31-.29.48-.42a3,3,0,0,1,1.86-.58c1.13,0,2.27,0,3.4,0a2.87,2.87,0,0,1,3,3v1.69h.89A2.92,2.92,0,0,1,44.83,36c0,.9,0,1.79,0,2.69v.53h.83a.89.89,0,0,1,1,1q0,.84,0,1.68a.86.86,0,0,1-1,1H2.54a1.23,1.23,0,0,1-1.19-.57ZM2.7,41.5H45.29v-.92H2.7Zm8.5-2.3c0-1.19,0-2.33,0-3.48a1.48,1.48,0,0,0-1.61-1.46c-1.14,0-2.27,0-3.41,0A1.58,1.58,0,0,0,4.47,36c0,.91,0,1.83,0,2.74v.49Zm32.3,0c0-1.14,0-2.23,0-3.32a1.55,1.55,0,0,0-1.69-1.63H38.44a1.58,1.58,0,0,0-1.69,1.68c0,1,0,2,0,3,0,.09,0,.19,0,.3Zm-8.08,0c0-1.21,0-2.36,0-3.5a1.5,1.5,0,0,0-1.55-1.44c-1.2,0-2.39,0-3.58,0a1.53,1.53,0,0,0-1.59,1.59c0,1,0,2,0,3.06a1.55,1.55,0,0,0,0,.29Zm-16.13,0c0-1.1,0-2.16,0-3.22a1.58,1.58,0,0,0-1.73-1.73H14.25a1.6,1.6,0,0,0-1.7,1.68c0,1,0,2,0,3a1.76,1.76,0,0,0,0,.31Zm8.07,0V35.88a1.56,1.56,0,0,0-1.65-1.63H22.27a1.58,1.58,0,0,0-1.64,1.65q0,1.5,0,3a1.54,1.54,0,0,0,0,.3ZM20,34c.9-1.09,2.12-1.08,3.34-1,0-.74,0-1.43,0-2.11a1.4,1.4,0,0,0-1.38-1.26c-1.29,0-2.58,0-3.88,0a1.26,1.26,0,0,0-1.3,1,16.5,16.5,0,0,0-.18,2.37C17.88,32.88,19.07,32.9,20,34Zm19.51-1v-.48c0-.53,0-1.06,0-1.59A1.47,1.47,0,0,0,38,29.55c-1.27,0-2.53,0-3.8,0a1.39,1.39,0,0,0-1.41,1.17,18.18,18.18,0,0,0,0,2.22,3.56,3.56,0,0,1,3.31,1C37,32.89,38.21,32.86,39.48,32.93Zm-8.06,0v-.64c0-.43,0-.86,0-1.28A1.48,1.48,0,0,0,30,29.56c-1.31,0-2.63,0-3.94,0a1.36,1.36,0,0,0-1.33,1.15,20.43,20.43,0,0,0,0,2.22c1.24-.07,2.43,0,3.3,1.06C28.93,32.88,30.14,32.87,31.42,32.93Zm-16.17,0c0-.7,0-1.34,0-2a1.46,1.46,0,0,0-1.43-1.41c-1.28,0-2.56,0-3.85,0a1.38,1.38,0,0,0-1.36,1.12c-.1.73-.08,1.48-.11,2.26,1.3,0,2.49,0,3.39,1C12.8,32.89,14,32.87,15.25,32.93Z"/><path class="cls-1" d="M42.64,15.81v5.92c0,1.19-.52,1.66-1.71,1.55-2.64-.25-5.28-.55-7.92-.75a109.57,109.57,0,0,0-15.16-.15c-3.64.25-7.28.61-10.92.92a1.3,1.3,0,0,1-1.57-1.4c0-4.08,0-8.17,0-12.25A1.28,1.28,0,0,1,6.91,8.24c2.12.2,4.22.5,6.34.62,3.65.21,7.3.39,11,.45a119.51,119.51,0,0,0,13.9-.73c.9-.09,1.79-.23,2.68-.31a2.8,2.8,0,0,1,1.12.09,1.27,1.27,0,0,1,.74,1.34C42.63,11.74,42.64,13.77,42.64,15.81ZM41.27,22V9.54a135,135,0,0,1-34.55,0V22A134.08,134.08,0,0,1,41.27,22Z"/><path class="cls-1" d="M4,25.06a132.37,132.37,0,0,1,39.94,0V17.83c0-.1,0-.21,0-.31,0-.55.25-.87.66-.86s.66.32.66.88c0,2.56,0,5.13,0,7.69,0,.88-.48,1.29-1.36,1.16q-6.3-1-12.66-1.32A109.77,109.77,0,0,0,18.19,25c-3.38.22-6.76.53-10.13.83C6.7,26,5.34,26.22,4,26.4a1,1,0,0,1-1.28-1c0-2.64,0-5.28,0-7.92,0-.49.27-.79.65-.79s.67.3.67.82v7.58Z"/><path class="cls-1" d="M44,6.48A132.37,132.37,0,0,1,4,6.48V17.19c0,.16,0,.37,0,.48s-.36.48-.56.49S3,18,2.78,17.77s-.08-.36-.08-.55V6.42c0-1,.44-1.39,1.48-1.27,3.19.38,6.37.85,9.57,1.09,3.51.26,7,.36,10.55.41A108.83,108.83,0,0,0,37.06,6c2.21-.23,4.41-.56,6.62-.83a2.83,2.83,0,0,1,.87,0,1,1,0,0,1,.74,1c0,2.64,0,9.15,0,11.79,0,.49-.27.78-.67.77S44,18.47,44,18C44,15.61,44,9.38,44,7Z"/></svg>