<svg id="Layer_1" data-name="Layer 1" xmlns="http://www.w3.org/2000/svg" viewBox="0 0 48 48"><defs><style>.cls-1{fill:#fbfbfb;}</style></defs><title>TWO FLOORS OF SHOPPING</title><path class="cls-1" d="M15.9,2.61h1.58l1.8.46a.29.29,0,0,0,.16,0l1.8-.45h1.51c.32.07.65.13,1,.21a7.34,7.34,0,0,1,5.64,7.09V12h4.92c.8,0,1.07.28,1.07,1.09v8a4.54,4.54,0,0,1,3.53,4h4.75c.71,0,1,.3,1,1,0,5.05,0,10.11,0,15.16a4.06,4.06,0,0,1-4.18,4.13H7.39a3.92,3.92,0,0,1-4-4q0-14.17,0-28.35c0-.7.29-1,1-1h5c0-.71,0-1.37,0-2A7.36,7.36,0,0,1,15,2.82ZM25.05,43.7a5,5,0,0,1-.81-3.19c0-4.76,0-9.52,0-14.28,0-.83.28-1.11,1.1-1.12H30a4.55,4.55,0,0,1,1.18-2.64,4.63,4.63,0,0,1,2.47-1.36V13.73h-4.3v.47c0,1.23,0,2.45,0,3.68a1.2,1.2,0,0,1-.33.75.69.69,0,0,1-.85.09.87.87,0,0,1-.47-.83V13.73H16.29v.48c0,1.19,0,2.39,0,3.59,0,.63-.34,1-.86,1s-.8-.38-.81-1V14.17c0-.15,0-.29,0-.43H10.19v30ZM38.87,26.81V30a.88.88,0,0,1-.85,1,.86.86,0,0,1-.82-1c0-.92,0-1.84,0-2.76,0-.13,0-.27,0-.4H31.68v.47c0,.92,0,1.84,0,2.76a.85.85,0,0,1-.85.89A.86.86,0,0,1,30,30V26.81H25.92V41.07a2.45,2.45,0,0,0,2.66,2.64H40.32A2.44,2.44,0,0,0,43,41.07V27.25c0-.15,0-.29,0-.44ZM5,13.73V15Q5,28.12,5,41.25a2.26,2.26,0,0,0,1.89,2.42,11.29,11.29,0,0,0,1.54,0V13.73ZM22.41,12c0-.74,0-1.43,0-2.13a5.66,5.66,0,0,0-2.7-4.76.57.57,0,0,0-.71,0A5.82,5.82,0,0,0,16.67,7.9,11.15,11.15,0,0,0,16.3,12Zm-7.73,0c-.3-3,.16-5.65,2.55-7.67l-.18-.07a5.64,5.64,0,0,0-5.89,4.45,19.18,19.18,0,0,0-.15,3c0,.08.17.23.27.23.36,0,.73,0,1.09,0Zm13,0c0-.75,0-1.46,0-2.16a5.54,5.54,0,0,0-3.39-5.08,4.75,4.75,0,0,0-2.8-.39c.08.13.21.18.3.27a7.31,7.31,0,0,1,1.74,2.52,7.54,7.54,0,0,1,.55,2.89V12Zm9.42,13.08a2.62,2.62,0,0,0-2.54-2.35,2.67,2.67,0,0,0-2.82,2.35Z"/></svg>