<svg id="Layer_1" data-name="Layer 1" xmlns="http://www.w3.org/2000/svg" viewBox="0 0 48 48"><defs><style>.cls-1{fill:#fbfbfb;}</style></defs><path class="cls-1" d="M36.39,45h-.82a2.58,2.58,0,0,1-1.94-1.72c-.6,0-1.15.07-1.71.08-2,0-4,0-6,0a3.27,3.27,0,0,0-1.05.24c-1,.36-2.06.77-3.11,1.1a10.73,10.73,0,0,1-1.6.29h-2.3l-.13-.09a.82.82,0,0,1,.44-1.55h.62a9.61,9.61,0,0,0,4.76-1,6,6,0,0,1,3.18-.68c1.2,0,2.4,0,3.54,0v-8.2h-.5c-2,0-4.05,0-6.07,0a1,1,0,0,1-1-.58,5.05,5.05,0,0,0-2.44-2.28c-1.33-.6-2.73-.39-4.14-.42v.53c0,.84-.26,1.11-1.09,1.11H7.21a.82.82,0,1,0,0,1.64c1,0,2.1,0,3.15,0a.8.8,0,0,1,.79,1.12.85.85,0,0,1-.89.52H5.62a.86.86,0,0,0-.86.43.82.82,0,0,0,.79,1.21h4.67c.6,0,1,.31,1,.8s-.37.84-1,.84h-3c-.6,0-1,.32-1,.81s.37.83,1,.83h3a.82.82,0,1,1,0,1.64H8.92c-.61,0-1,.31-1,.81s.37.83,1,.83h9.65a.82.82,0,0,1,.85.78.93.93,0,0,1-.58.86H8.34l-.26-.09a2.39,2.39,0,0,1-1.75-2,7,7,0,0,1,0-1.28A2.5,2.5,0,0,1,4.9,40.34a2.55,2.55,0,0,1-.09-2A2.55,2.55,0,0,1,3,36.14a2.46,2.46,0,0,1,1.73-2.53c0-.48-.09-.91-.09-1.34,0-2.69,0-5.39,0-8.08a2.15,2.15,0,0,0-.22-.93A11.53,11.53,0,0,1,3,18.17C3,15,3,11.83,3,8.66A2.34,2.34,0,0,1,4.91,6.38a8.15,8.15,0,0,1,1.49,0A2.51,2.51,0,0,1,7.66,4.91a2.46,2.46,0,0,1,2-.1,2.48,2.48,0,0,1,4.74-.08c.56,0,1.09-.08,1.62-.08,2.55,0,5.11,0,7.66,0a2.51,2.51,0,0,0,1.21-.29A11,11,0,0,1,29.78,3C33,3,36.17,3,39.37,3a2.32,2.32,0,0,1,2.25,1.87,7.47,7.47,0,0,1,0,1.5c1.47.67,1.91,1.57,1.58,3.27a2.63,2.63,0,0,1,1.78,2v.82a2.59,2.59,0,0,1-1.73,1.94c0,.56.08,1.07.08,1.59,0,2.65,0,5.29,0,7.94a2.35,2.35,0,0,0,.17.74c.39,1.08.81,2.14,1.18,3.22.14.42.19.87.29,1.3v10.5c0,.09-.07.18-.1.27a2.39,2.39,0,0,1-2,1.74,7,7,0,0,1-1.28,0,2.48,2.48,0,0,1-3.26,1.56A2.63,2.63,0,0,1,36.39,45ZM30.16,31.88h.48c1,0,1.24.2,1.24,1.25v7.42c0,.11,0,.22,0,.32a.83.83,0,0,0,.82.85.82.82,0,0,0,.81-.86c0-1.08,0-2.15,0-3.23a.81.81,0,0,1,1.62-.12,2.17,2.17,0,0,1,0,.36v4.31a2.8,2.8,0,0,0,0,.29.82.82,0,1,0,1.63,0c0-1.56,0-3.11,0-4.67,0-.63.32-1,.83-1s.8.38.81,1v2.67c0,.87.25,1.26.81,1.27s.83-.4.83-1.25,0-1.83,0-2.75a.82.82,0,1,1,1.63,0c0,.5,0,1,0,1.51a.82.82,0,1,0,1.63,0c0-.13,0-.25,0-.37,0-2.53,0-5.06,0-7.59a12.22,12.22,0,0,0-1.45-6.22,1.77,1.77,0,0,1-.2-.82c0-2.05,0-4.1,0-6.15v-.35h-8.2c0,2.19,0,4.29,0,6.39a1.26,1.26,0,0,1-.72,1.25,4.48,4.48,0,0,0-2.39,3.16A29.2,29.2,0,0,0,30.16,31.88ZM6.29,30.26h8.2v-.53c0-2,0-4,0-6a1.08,1.08,0,0,1,.64-1.08,5,5,0,0,0,2.4-2.94,13.08,13.08,0,0,0,.25-3.6h-.41c-1,0-1.24-.2-1.24-1.25,0-2.51,0-5,0-7.54a1.51,1.51,0,0,0-.17-.7.72.72,0,0,0-.86-.32.8.8,0,0,0-.6.82c0,1.07,0,2.14,0,3.2a.79.79,0,0,1-.52.8.68.68,0,0,1-.83-.15,1.43,1.43,0,0,1-.28-.73c0-1.47,0-2.93,0-4.39,0-.11,0-.22,0-.33a.82.82,0,1,0-1.63,0c0,1.55,0,3.11,0,4.67,0,.62-.32,1-.83,1s-.8-.39-.81-1V7.35c0-.67-.29-1-.81-1.06s-.83.39-.83,1.08c0,1,0,1.94,0,2.91a.84.84,0,0,1-.82.93.85.85,0,0,1-.82-.94c0-.52,0-1,0-1.56a.8.8,0,0,0-.79-.78.82.82,0,0,0-.83.79c0,.11,0,.22,0,.33,0,2.78,0,5.57,0,8.36a9.15,9.15,0,0,0,.95,4.44,6.54,6.54,0,0,1,.7,3.46C6.26,27,6.29,28.64,6.29,30.26ZM31.88,17.77v-.51c0-.89.24-1.13,1.15-1.13h7.66c.64,0,1-.3,1-.81s-.38-.83-1-.83H37.93c-.74,0-1.13-.29-1.13-.82s.39-.82,1.14-.82h4.5a.83.83,0,0,0,.88-1,.85.85,0,0,0-.92-.6H37.77c-.6,0-1-.32-1-.82s.37-.82,1-.82h3c.63,0,1-.33,1-.83s-.38-.81-1-.81h-3a.84.84,0,0,1-.94-.81c0-.5.37-.83,1-.83s1,0,1.51,0A.78.78,0,0,0,40,5.74a.69.69,0,0,0-.21-.85,1.44,1.44,0,0,0-.75-.23c-2.58,0-5.17,0-7.75,0a12.11,12.11,0,0,0-6.22,1.44,1.81,1.81,0,0,1-.86.2c-2,0-3.93,0-5.9,0h-.58v8.2h.51c2,0,4,0,5.94,0a1.15,1.15,0,0,1,1.15.67,5,5,0,0,0,2.52,2.23C29.16,17.94,30.5,17.73,31.88,17.77Zm0,1.64c-.76,0-1.46,0-2.15,0a6.61,6.61,0,0,1-5.53-3,.58.58,0,0,0-.53-.29c-1.31,0-2.62,0-3.93,0l-.33,0c0,.69,0,1.34,0,2a6.72,6.72,0,0,1-3,5.69.66.66,0,0,0-.25.45c0,1.33,0,2.67,0,4,0,.09,0,.18,0,.29.72,0,1.42,0,2.11,0a6.61,6.61,0,0,1,5.53,3,.55.55,0,0,0,.53.28h3.93l.33,0V30a6.65,6.65,0,0,1,3.06-5.87.49.49,0,0,0,.21-.31C31.88,22.38,31.88,20.92,31.88,19.41Z"/></svg>