<svg id="Layer_1" data-name="Layer 1" xmlns="http://www.w3.org/2000/svg" viewBox="0 0 48 48"><defs><style>.cls-1{fill:#fbfbfb;}</style></defs><path class="cls-1" d="M24.92.73a15.75,15.75,0,0,1,1.8.44A8.91,8.91,0,0,1,33,9a.76.76,0,0,0,.4.65,16.86,16.86,0,0,1,5,5.05.74.74,0,0,0,.64.38,9.05,9.05,0,1,1-2.17.05l.14-.05a15.34,15.34,0,0,0-3.93-4c-1.31,5.08-4.42,8-9.8,7.76A9,9,0,0,1,15,11.11a15.89,15.89,0,0,0-4,4.05l.85.19a9.09,9.09,0,1,1-11,10.06,1.67,1.67,0,0,0-.08-.3V23.29a18.2,18.2,0,0,1,.57-2.23,8.94,8.94,0,0,1,7.58-5.89c.27,0,.53,0,.73-.33a17.1,17.1,0,0,1,5-5.17.73.73,0,0,0,.27-.45,8.94,8.94,0,0,1,5.58-7.76A19,19,0,0,1,23.1.73ZM9.81,31.93a7.73,7.73,0,1,0-7.72-7.72A7.74,7.74,0,0,0,9.81,31.93Zm28.39,0a7.73,7.73,0,1,0-7.73-7.72A7.75,7.75,0,0,0,38.2,31.89ZM16.27,9.83A7.73,7.73,0,1,0,24,2.1,7.72,7.72,0,0,0,16.27,9.83Z"/><path class="cls-1" d="M15.17,47.27V37.05H12.43L24.08,25.36,35.7,37H32.92V42.1H31.55v-5a2.73,2.73,0,0,0-.36,0,2.18,2.18,0,0,1-2.08-.85c-1.54-1.62-3.17-3.17-4.76-4.75-.1-.11-.21-.21-.34-.33-.12.12-.24.21-.34.32-1.73,1.72-3.47,3.43-5.18,5.17a1.26,1.26,0,0,1-1.11.45,7,7,0,0,0-.8,0V45.9h4.68V39.1h5.47v6.8h4.83v-4h1.33v5.42ZM24,29.06c.18.23.27.4.4.53l5.8,5.77c.12.11.25.28.38.29.59,0,1.19,0,1.77,0l-8.32-8.35-8.33,8.36a4.75,4.75,0,0,1,.75,0,1.82,1.82,0,0,0,1.7-.69C20.07,33,22,31.11,24,29.06ZM22.66,45.9h2.7V40.46h-2.7Z"/><path class="cls-1" d="M4.67,24.1l-.92-.93a8.56,8.56,0,0,1,12.14,0l-1,.93a7.34,7.34,0,0,0-10.26,0Z"/><path class="cls-1" d="M14,25l-.89.92c-2.6-1.73-4.33-1.74-6.53,0L5.7,25A5.85,5.85,0,0,1,14,25Z"/><path class="cls-1" d="M11.13,27.78a2,2,0,0,0-2.68,0l-.93-.94a3.26,3.26,0,0,1,4.6,0Z"/><path class="cls-1" d="M38.22,19c1.56,1.65,3,3.33,3.5,5.6A3.61,3.61,0,0,1,38.92,29a3.65,3.65,0,0,1-4.32-3,5,5,0,0,1,.59-2.89A13.68,13.68,0,0,1,38.22,19Zm0,2A10.62,10.62,0,0,0,36,24.79a2.29,2.29,0,1,0,4.4,0A10.71,10.71,0,0,0,38.2,21Z"/><path class="cls-1" d="M26.74,15.61H21.33c0-.15,0-.28,0-.41,0-.82,0-1.64,0-2.45a1.27,1.27,0,0,0-.48-1.12,4.64,4.64,0,0,1-1-5.68,4.69,4.69,0,0,1,8.81,2.36,4.47,4.47,0,0,1-1.59,3.39,1,1,0,0,0-.35.81C26.75,13.54,26.74,14.56,26.74,15.61Zm.57-7.4A3.32,3.32,0,0,0,24,4.86a3.34,3.34,0,1,0,3.29,3.35Zm-4.63,6h2.67V12.81H22.68Z"/></svg>