<svg id="Layer_1" data-name="Layer 1" xmlns="http://www.w3.org/2000/svg" viewBox="0 0 48 48"><defs><style>.cls-1{fill:#fbfbfb;}</style></defs><path class="cls-1" d="M13.05,6.54c.81,0,1.61,0,2.42,0a2.88,2.88,0,0,0,2.21-.92c1.06-1.09,2.15-2.16,3.22-3.23a4.16,4.16,0,0,1,6.2,0c1,1,2,1.95,3,3a3.47,3.47,0,0,0,2.86,1.17c1.37-.06,2.74,0,4.11,0A4.14,4.14,0,0,1,41.46,11c0,1.5,0,3,0,4.51a2.89,2.89,0,0,0,.92,2.21c1.09,1.06,2.15,2.14,3.22,3.22a4.16,4.16,0,0,1,0,6.2c-1,1-2,2.06-3.06,3a3.31,3.31,0,0,0-1.1,2.69c0,1.42,0,2.84,0,4.26a4.14,4.14,0,0,1-4.37,4.38c-1.52,0-3,0-4.56,0a2.92,2.92,0,0,0-2.21.92c-1.07,1.11-2.16,2.18-3.26,3.26a4.14,4.14,0,0,1-6.12,0c-1.07-1.06-2.14-2.11-3.18-3.2a3.07,3.07,0,0,0-2.38-1c-1.6,0-3.21,0-4.81,0a4.07,4.07,0,0,1-3.95-3.33,5.81,5.81,0,0,1-.08-1c0-1.52,0-3,0-4.56a2.86,2.86,0,0,0-.92-2.21C4.54,29.26,3.47,28.18,2.4,27.1a4.16,4.16,0,0,1,0-6.2c1.06-1.06,2.11-2.14,3.19-3.18a3,3,0,0,0,1-2.3c0-1.52,0-3,0-4.56a4.12,4.12,0,0,1,4.28-4.32Zm.13,1.58H10.85a2.54,2.54,0,0,0-2.72,2.73c0,1.48,0,3,0,4.45a4.62,4.62,0,0,1-1.51,3.63C5.55,20,4.51,21,3.47,22.08a2.54,2.54,0,0,0,0,3.85C4.56,27,5.64,28.12,6.74,29.19a4.47,4.47,0,0,1,1.39,3.37c0,1.5,0,3,0,4.51a2.55,2.55,0,0,0,2.78,2.81h4.56a4.44,4.44,0,0,1,3.33,1.37c1.07,1.1,2.16,2.18,3.25,3.26a2.55,2.55,0,0,0,3.89,0c1.06-1,2.12-2.08,3.15-3.15a4.58,4.58,0,0,1,3.58-1.49c1.49,0,3,0,4.46,0a2.53,2.53,0,0,0,2.74-2.75c0-1.47,0-2.94,0-4.41a4.62,4.62,0,0,1,1.49-3.63c1.09-1,2.14-2.11,3.19-3.18a2.55,2.55,0,0,0,0-3.82c-1.09-1.11-2.18-2.21-3.29-3.3a4.39,4.39,0,0,1-1.38-3.32c0-1.51,0-3,0-4.51a2.57,2.57,0,0,0-2.81-2.84H32.51a4.36,4.36,0,0,1-3.29-1.36C28.15,5.67,27.06,4.59,26,3.51A2.56,2.56,0,0,0,22,3.5L18.75,6.79a4.29,4.29,0,0,1-3.24,1.33Z"/><path class="cls-1" d="M38.47,24A14.47,14.47,0,1,1,24,9.53,14.46,14.46,0,0,1,38.47,24ZM24,36.89A12.89,12.89,0,1,0,11.12,24,12.9,12.9,0,0,0,24,36.89Z"/><path class="cls-1" d="M19.79,22c1.15-1.83,2.26-3.62,3.39-5.4a1.46,1.46,0,0,1,.64-.57c.45-.17.73.15,1,.5q1.54,2.51,3.11,5l.31.47,3.65-2.43c.14-.09.27-.24.41-.26s.68-.12.86,0a1,1,0,0,1,.32.83c-1,3.72-2.08,7.43-3.14,11.14a.79.79,0,0,1-.85.61H18.56a.85.85,0,0,1-.9-.69l-3.12-11a.79.79,0,0,1,.28-.93.78.78,0,0,1,1,0Zm11.58-.18L28.8,23.54c-.9.6-1.17.54-1.74-.36-.91-1.47-1.83-2.93-2.76-4.4-.09-.14-.18-.29-.31-.47-1,1.66-2,3.26-3,4.85-.57.91-.85,1-1.74.38l-2.5-1.68c0,.1,0,.13,0,.16.75,2.67,1.51,5.33,2.25,8,.08.3.24.33.49.33q4.56,0,9.11,0c.34,0,.44-.12.53-.42.48-1.77,1-3.52,1.49-5.28C30.82,23.75,31.08,22.85,31.37,21.83Z"/></svg>