<svg id="Layer_1" data-name="Layer 1" xmlns="http://www.w3.org/2000/svg" viewBox="0 0 48 48"><defs><style>.cls-1{fill:#fbfbfb;}</style></defs><path class="cls-1" d="M1.25,28A1.71,1.71,0,0,1,3,26.79c1.89,0,3.78-.16,5.68-.23,1.27,0,1.65.25,2,1.52,1.15,0,2.3-.1,3.45-.13l3.5-.06a.94.94,0,0,0,.52-.16,13.27,13.27,0,0,1,7-2.69c.26,0,.37-.08.37-.36a18.45,18.45,0,0,0-2.19-8.62c-.68.24-1.32.54-2,.71a5.78,5.78,0,0,1-6.89-3.34,13.93,13.93,0,0,1-1.26-6.82c0-.58.06-1.15.11-1.73a.77.77,0,0,1,.8-.78,17.73,17.73,0,0,1,8.6,1.78,6,6,0,0,1,2,8.85.48.48,0,0,0-.07.41,19.1,19.1,0,0,1,2,5.26s0,.07,0,0c.72-1.24,1.48-2.53,2.21-3.82.06-.11,0-.33-.09-.46A6.13,6.13,0,0,1,29.93,8.6,8.16,8.16,0,0,1,33.8,6.84a21.38,21.38,0,0,1,6.58-.27.76.76,0,0,1,.76.73,15.56,15.56,0,0,1-2,8.58,5.9,5.9,0,0,1-4.25,3,6.48,6.48,0,0,1-4.55-1.12l-.23-.15a18,18,0,0,0-3,7.35c.6.09,1.18.15,1.75.27a15.65,15.65,0,0,1,9.31,5.59A.49.49,0,0,0,39,31c.26-.14.55-.21.82-.34a4.61,4.61,0,0,1,4.9.49,11,11,0,0,1,1.55,1.25,1.3,1.3,0,0,1-.3,2.26q-4.86,2.72-9.74,5.41c-1.33.74-2.67,1.46-4,2.22a11.88,11.88,0,0,1-9.12,1.23c-3.84-1-7.68-1.86-11.51-2.78a3.79,3.79,0,0,0-.38-.06c0,.1-.07.19-.11.28a1.5,1.5,0,0,1-1.4,1c-2,.09-4,.14-6,.27a1.69,1.69,0,0,1-1.9-1.76C1.65,37,1.47,33.49,1.32,30c0-.2-.05-.41-.07-.61Zm9.5,1.64c0,.14,0,.19,0,.23.12,2.85.26,5.71.35,8.56,0,.43.16.57.56.67,3.8.9,7.61,1.77,11.38,2.76a11.07,11.07,0,0,0,8.67-1.16c3.57-2,7.19-4,10.79-6L45,33.32c-.62-.41-1.15-.82-1.73-1.14a2.94,2.94,0,0,0-2.68-.13c-2.56,1.06-5.14,2.06-7.7,3.09a2.32,2.32,0,0,0-.67.41,2.76,2.76,0,0,1-1.6.69c-3.63.16-7.25.31-10.88.45a.83.83,0,0,1-.6-.18,1.27,1.27,0,0,1-.26-.82c.06-.44.44-.58.86-.6l7-.28c1.2-.05,2.4-.1,3.6-.17a1.28,1.28,0,0,0,0-2.55c-.22,0-.45,0-.67,0l-5.37.23a1.13,1.13,0,0,1-.89-.38,8,8,0,0,0-1.48-1.19,9,9,0,0,0-4.26-1.26C15.33,29.45,13.05,29.57,10.75,29.62ZM2.87,28.38l.51,12.21,6.16-.26L9,28.13ZM22.4,14.62a17.92,17.92,0,0,0-4.15-4.14c-.51-.36-.63-.85-.33-1.24a.84.84,0,0,1,1.25-.08,19,19,0,0,1,3.62,3.26c.3.35.59.7.88,1.06a4.45,4.45,0,0,0-1.48-6.15,12.4,12.4,0,0,0-4.66-1.47c-.87-.11-1.75-.16-2.75-.25.05,1.31.05,2.51.17,3.69a8.6,8.6,0,0,0,1.47,4.23A4.32,4.32,0,0,0,22.4,14.62ZM39.55,8.14a1.32,1.32,0,0,0-.25-.05,16.12,16.12,0,0,0-7.14,1,4.38,4.38,0,0,0-2,6,3.53,3.53,0,0,1,.25-.35,19.16,19.16,0,0,1,4.41-3.55c.61-.36,1.09-.31,1.36.13s.09.89-.55,1.29-1.06.66-1.56,1a15.84,15.84,0,0,0-2.85,2.64c1.82,1.32,4.38,1.57,6.1-.55S39.4,10.88,39.55,8.14ZM37,31.8a14.05,14.05,0,0,0-9.69-5.14,11.48,11.48,0,0,0-7.16,1.73,9.67,9.67,0,0,1,4,2.1,1.12,1.12,0,0,0,.7.24c1.78,0,3.55-.13,5.32-.18a2.83,2.83,0,0,1,2.93,2.38c0,.11.05.22.08.37Z"/></svg>