<svg id="Layer_1" data-name="Layer 1" xmlns="http://www.w3.org/2000/svg" viewBox="0 0 48 48"><defs><style>.cls-1{fill:#fbfbfb;}</style></defs><path class="cls-1" d="M41.4,9.46A7.66,7.66,0,0,1,36.71,5,3.61,3.61,0,0,0,34,2.37H13.9l-.21.07a4.84,4.84,0,0,0-.49.18,3,3,0,0,0-1.67,1.75A8.23,8.23,0,0,1,6.44,9.52a3,3,0,0,0-2,2.93V14c0,1.71,0,3.49.08,5.22A29.21,29.21,0,0,0,8.13,31.9a30.35,30.35,0,0,0,13.55,13c.42.2.85.37,1.29.54l.54.21h1c9.4-3.9,15.54-11,18.22-21.13a27.71,27.71,0,0,0,.86-7.22c0-1.57,0-3.15,0-4.72A3.1,3.1,0,0,0,41.4,9.46Zm.33,5.14c0,1.5,0,3-.08,4.57a27.91,27.91,0,0,1-4.46,13.69,28.47,28.47,0,0,1-12.38,10.7,1.94,1.94,0,0,1-.82.2,1.85,1.85,0,0,1-.8-.2A28.59,28.59,0,0,1,6.72,22.47a27.08,27.08,0,0,1-.47-5.72c0-.86,0-1.73,0-2.6V12.59a1.34,1.34,0,0,1,1-1.42,9.88,9.88,0,0,0,5.93-6,1.33,1.33,0,0,1,1.48-1h18.7a1.33,1.33,0,0,1,1.5,1,9.83,9.83,0,0,0,5.84,5.89,1.37,1.37,0,0,1,1.06,1.54C41.73,13.31,41.73,14,41.73,14.6Z"/><path class="cls-1" d="M32.17,21.92v-.23a2.64,2.64,0,0,0-2-2.5,4.32,4.32,0,0,0-.54-.1L29,19V17.12c0-.76,0-1.51,0-2.26A5,5,0,0,0,24.18,10H24a5,5,0,0,0-3.51,1.4A5.06,5.06,0,0,0,19,15.05V19l-.46.07-.28,0a2.64,2.64,0,0,0-2.43,2.57c0,2.67-.06,5.28,0,7.89a5.32,5.32,0,0,0,5.14,5c2,0,4,0,6,0a5.31,5.31,0,0,0,5.14-5C32.22,27,32.19,24.44,32.17,21.92ZM20.82,17.29c0-.79,0-1.57,0-2.36A3.17,3.17,0,0,1,24,11.86h0a3.16,3.16,0,0,1,3.14,3.07c0,.87,0,1.74,0,2.61l-.05,1.21L27,19l-.28.06H20.86l0-.49c0-.11,0-.22,0-.32ZM30.36,29a3.56,3.56,0,0,1-3.78,3.78H21.35a3.56,3.56,0,0,1-3.71-3.68c0-1.82,0-3.63,0-5.45V22c0-.82.31-1.12,1.14-1.13H29.15c.91,0,1.21.3,1.21,1.2Z"/><path class="cls-1" d="M24.91,26.49v.76c0,.26,0,.53,0,.8A.9.9,0,0,1,24,29h0a.9.9,0,0,1-.89-.94c0-.79,0-1.59,0-2.38a.91.91,0,0,1,.89-.94h0a.92.92,0,0,1,.9.95C24.92,26,24.91,26.22,24.91,26.49Z"/></svg>