<svg id="Layer_1" data-name="Layer 1" xmlns="http://www.w3.org/2000/svg" viewBox="0 0 48 48"><defs><style>.cls-1{fill:#fbfbfb;}</style></defs><path class="cls-1" d="M24,47.29H12.36c-.76,0-.94-.18-.94-.93,0-1.68,0-3.37,0-5A6.45,6.45,0,0,1,18,34.75H29.89a6.45,6.45,0,0,1,6.62,6.59c0,1.68,0,3.36,0,5,0,.72-.19.9-.92.9Zm-5.68-1.38H29.66V44.74c0-.6,0-1.19,0-1.78a.64.64,0,0,1,.68-.66A.63.63,0,0,1,31,43c0,.16,0,.32,0,.48V46h3.7l.46,0c0-.17,0-.31,0-.45,0-1.34,0-2.69,0-4a5.17,5.17,0,0,0-5.41-5.37H24.49c-2.31,0-4.62,0-6.92,0a5,5,0,0,0-4.78,4.67c-.09,1.65,0,3.3,0,4.95a.72.72,0,0,0,0,.19h4.14V43a.64.64,0,0,1,.64-.7c.42,0,.64.25.69.66a3.81,3.81,0,0,1,0,.48Z"/><path class="cls-1" d="M4.16,22c.16-1,.28-2,.52-3a1.45,1.45,0,0,0-.52-1.66,22.31,22.31,0,0,1-2-2,1,1,0,0,1-.26-.79.9.9,0,0,1,.63-.45c1.15-.21,2.32-.35,3.47-.54a.79.79,0,0,0,.48-.36c.52-1,1-2,1.52-3.05.14-.31.34-.63.7-.53a1.17,1.17,0,0,1,.66.52c.53,1,1,2,1.52,3.05a.6.6,0,0,0,.53.39c1.06.13,2.12.29,3.18.46a1.54,1.54,0,0,1,.78.3c.31.32.19.67-.11,1-.82.81-1.63,1.63-2.47,2.43a.7.7,0,0,0-.23.72c.19,1,.36,2.05.54,3.08a1,1,0,0,1,0,.33c-.06.25-.09.58-.26.7a.87.87,0,0,1-.74,0c-1-.47-1.92-1-2.85-1.49a1.06,1.06,0,0,0-1.18,0c-.94.53-1.89,1-2.85,1.5A.68.68,0,0,1,4.16,22ZM8.67,11.74c-.4.8-.8,1.47-1.08,2.19a1.41,1.41,0,0,1-1.36.93c-.75.07-1.5.21-2.28.33.64.65,1.21,1.28,1.83,1.85a1.15,1.15,0,0,1,.35,1.17c-.16.82-.29,1.66-.45,2.58.79-.41,1.53-.75,2.23-1.16a1.28,1.28,0,0,1,1.47,0c.7.41,1.44.75,2.24,1.16-.15-.87-.25-1.64-.42-2.4a1.28,1.28,0,0,1,.45-1.45,14.59,14.59,0,0,0,1.14-1.09l.63-.65c-.95-.14-1.79-.3-2.65-.39a1.06,1.06,0,0,1-.93-.7C9.48,13.34,9.09,12.6,8.67,11.74Z"/><path class="cls-1" d="M34.78,22c.16-.91.25-1.89.5-2.84a1.66,1.66,0,0,0-.62-1.94,17.37,17.37,0,0,1-1.89-1.85,1,1,0,0,1-.28-.78,1,1,0,0,1,.67-.48c1.13-.2,2.28-.33,3.42-.53a.82.82,0,0,0,.51-.38c.51-1,1-2,1.48-3,.15-.31.3-.61.71-.62s.57.29.73.6c.49,1,1,2,1.49,3a.77.77,0,0,0,.49.35c1,.18,2,.32,3.08.47a.61.61,0,0,1,.24,0c.26.14.61.25.76.47s0,.63-.31.88c-.8.78-1.61,1.56-2.39,2.37a.82.82,0,0,0-.21.61c.17,1.14.39,2.27.55,3.41a.93.93,0,0,1-.21.76,1,1,0,0,1-.8,0c-1-.5-2-1-3-1.58a.75.75,0,0,0-.8,0c-1,.54-2,1.07-3,1.59A.69.69,0,0,1,34.78,22Zm-.2-6.77c.56.59,1.06,1.18,1.63,1.67a1.43,1.43,0,0,1,.5,1.62c-.18.73-.26,1.48-.4,2.32.83-.43,1.57-.78,2.27-1.19a1.26,1.26,0,0,1,1.39,0c.72.41,1.46.77,2.27,1.19a19.2,19.2,0,0,0-.35-2,1.77,1.77,0,0,1,.68-2.18,7.36,7.36,0,0,0,.91-.86l.57-.57c-1-.15-1.84-.31-2.71-.41a1,1,0,0,1-.84-.61c-.38-.79-.78-1.57-1.22-2.43-.43.86-.84,1.65-1.23,2.45a.94.94,0,0,1-.8.59C36.38,14.9,35.51,15.05,34.58,15.18Z"/><path class="cls-1" d="M20.13,9.2a3.85,3.85,0,0,0-.26-.35L17.46,6.5c-.24-.24-.47-.52-.29-.83a1.16,1.16,0,0,1,.71-.47C19,5,20,4.86,21.11,4.73a.84.84,0,0,0,.74-.55c.45-1,.94-1.92,1.41-2.89.14-.3.3-.57.69-.58s.57.28.73.59c.49,1,1,2,1.49,3a.82.82,0,0,0,.48.36c1.09.18,2.19.33,3.28.49.35,0,.72.09.85.51s-.13.65-.39.91c-.78.75-1.55,1.53-2.34,2.28a.67.67,0,0,0-.21.68c.2,1.13.41,2.27.56,3.41a.9.9,0,0,1-.26.74.87.87,0,0,1-.74,0c-1-.5-2-1-3-1.59a.77.77,0,0,0-.84,0c-.95.53-1.91,1-2.89,1.51a1.22,1.22,0,0,1-.88.06c-.34-.13-.32-.5-.26-.84C19.72,11.66,19.91,10.47,20.13,9.2Zm8.46-2.87c-.75-.1-1.55-.24-2.35-.33a1.25,1.25,0,0,1-1.13-.8c-.33-.76-.73-1.48-1.15-2.3-.37.74-.76,1.37-1,2.05A1.53,1.53,0,0,1,21.42,6c-.72.05-1.43.21-2.11.31.56.6,1.07,1.2,1.65,1.72a1.35,1.35,0,0,1,.46,1.45c-.18.77-.28,1.56-.42,2.44.63-.33,1.18-.63,1.73-.9,1.39-.69.95-.76,2.44,0l1.76.91c-.16-.92-.28-1.72-.44-2.52a1.25,1.25,0,0,1,.4-1.29C27.49,7.59,28,7,28.59,6.33Z"/><path class="cls-1" d="M23.92,32.52a6.76,6.76,0,1,1,6.79-6.58A6.75,6.75,0,0,1,23.92,32.52Zm5.47-6.74A5.43,5.43,0,1,0,24,31.19,5.42,5.42,0,0,0,29.39,25.78Z"/></svg>