<svg id="Layer_1" data-name="Layer 1" xmlns="http://www.w3.org/2000/svg" viewBox="0 0 48 48"><defs><style>.cls-1{fill:#fbfbfb;}</style></defs><title>CCTV Camera</title><path class="cls-1" d="M22.87,24.34l-.5-.14L2.75,17.33C2.37,17.2,2,17,2,16.55s.3-.68.7-.84l32-13,1.62-.65a.79.79,0,0,1,1.15.49l5.18,12.81c.23.59,0,.94-.61,1.2L30.19,21.41l-6.72,2.72C23.27,24.21,23.07,24.27,22.87,24.34Z"/><path class="cls-1" d="M42.18,18.25l.52,1.27a1.56,1.56,0,0,1-1,2.26L33.2,25.24l-17,6.88a1.61,1.61,0,0,1-2.44-1Q11.88,26.53,10,22l-.17-.47.52.17c3.82,1.34,7.65,2.67,11.47,4A2.85,2.85,0,0,0,24,25.62L41.7,18.44Z"/><path class="cls-1" d="M46,46c-.85,0-1.68,0-2.5,0a1.57,1.57,0,0,1-1.41-1.65V32.05a1.63,1.63,0,0,1,1.8-1.79H46Z"/><path class="cls-1" d="M31.24,33.06c.39.83.85,1.73,1.23,2.66a1.22,1.22,0,0,0,1.34.84c2,0,4.11,0,6.16,0h.52v3.17h-6.9a4,4,0,0,1-3.87-2.45c-.47-1-.95-2.05-1.4-3Z"/><path class="cls-1" d="M5.16,24a.91.91,0,0,1,.93.66q1.32,3.29,2.65,6.55c.06.15.13.31.18.47a.76.76,0,0,1-.41,1c-.47.21-1,.41-1.45.58a.76.76,0,0,1-1-.49Q4.58,29.25,3.15,25.7a.76.76,0,0,1,.48-1.11C4.18,24.36,4.73,24.15,5.16,24Z"/><path class="cls-1" d="M24,30.64l7.77-3.14c.61,1.58-.55,3.87-2.37,4.71A4.26,4.26,0,0,1,24,30.64Z"/><path class="cls-1" d="M7.75,24.61,9.19,24l2.34,5.78-1.44.59Z"/></svg>