<svg id="Layer_1" data-name="Layer 1" xmlns="http://www.w3.org/2000/svg" viewBox="0 0 48 48"><defs><style>.cls-1{fill:#fbfbfb;}</style></defs><title>Club House</title><path class="cls-1" d="M45.87,41.42H2.16V38.86H4.94v-4h9.2v4H16.7V28.62h6v10.2h2.57V28.62h6V38.83h2.53v-4H43v4h2.85Z"/><path class="cls-1" d="M45.87,16.73c-.14,0-.28,0-.42,0H30.77l-.46,0c.29-.34.55-.64.79-1a8.44,8.44,0,0,0,1.5-3c.07-.24.16-.32.4-.32H43.89a.84.84,0,0,1,.5.24c.51.45,1,.93,1.48,1.4Z"/><path class="cls-1" d="M5,19.32H43V32.2H33.84V26.06H14.18V32.2H5Z"/><path class="cls-1" d="M24,16.76a6.38,6.38,0,1,1,6.41-6.31A6.4,6.4,0,0,1,24,16.76Zm0-6.43v2.49h2.55V10.35H24V7.77H21.46v2.51h.66Z"/><path class="cls-1" d="M2.13,16.73c0-.83,0-1.63,0-2.42a.74.74,0,0,1,.1-.27L2.33,14c.5-.5.93-1.17,1.54-1.44a5.41,5.41,0,0,1,2-.08c3,0,6,0,9,0a.5.5,0,0,1,.58.44,8.55,8.55,0,0,0,2,3.57l.26.3Z"/></svg>