<svg id="Layer_1" data-name="Layer 1" xmlns="http://www.w3.org/2000/svg" viewBox="0 0 48 48"><defs><style>.cls-1{fill:#fbfbfb;}</style></defs><title>Gym</title><path class="cls-1" d="M45,18a2.68,2.68,0,0,1-1.27,1.77,2.48,2.48,0,0,1-3.07-.51c-1.42-1.41-2.82-2.83-4.23-4.24q-3.85-3.84-7.69-7.69a2.48,2.48,0,0,1-.57-3,2.41,2.41,0,0,1,3.71-.73c1.16,1,2.23,2.18,3.34,3.27.1.11.21.21.34.33L37.72,5a5.09,5.09,0,0,1,.53-.51,1.19,1.19,0,0,1,1.61,0q1.81,1.76,3.57,3.57a1.17,1.17,0,0,1-.08,1.75c-.72.75-1.46,1.48-2.2,2.21-.11.1-.24.18-.38.29.15.16.23.26.33.35.87.88,1.73,1.75,2.61,2.61a4,4,0,0,1,1.29,2Z"/><path class="cls-1" d="M17.18,45a4.28,4.28,0,0,1-1.88-1.31c-.94-1-1.89-1.9-2.91-2.92-.27.29-.5.58-.76.84-.58.59-1.17,1.19-1.77,1.77a1.22,1.22,0,0,1-1.82,0L4.64,40a1.23,1.23,0,0,1,0-1.88c.73-.74,1.47-1.47,2.21-2.2a2.66,2.66,0,0,1,.35-.27l-.36-.38c-1-1-2.06-2-3.07-3.08a2.46,2.46,0,0,1,.64-4.05,2.52,2.52,0,0,1,2.89.6c.89.88,1.78,1.78,2.67,2.67l9.22,9.23a2.47,2.47,0,0,1,.58,3.12,2.34,2.34,0,0,1-1.31,1.12,3,3,0,0,0-.31.15Z"/><path class="cls-1" d="M39,27.06a2.37,2.37,0,0,1-1.75-.77L21.69,10.74a2.39,2.39,0,0,1-.61-2.67A2.47,2.47,0,0,1,24.84,7c.16.13.31.27.46.41L40.61,22.69a2.48,2.48,0,0,1,.58,3.12A2.38,2.38,0,0,1,39,27.06Z"/><path class="cls-1" d="M8.94,21a2.66,2.66,0,0,1,2,.9q6.7,6.74,13.42,13.44c.67.67,1.35,1.32,2,2a2.47,2.47,0,0,1-1.06,4.16A2.37,2.37,0,0,1,23.12,41a4.38,4.38,0,0,1-.45-.41Q15,33,7.38,25.33a2.48,2.48,0,0,1-.61-3.08A2.38,2.38,0,0,1,8.94,21Z"/><path class="cls-1" d="M25.14,17.77l5.13,5.13-7.42,7.35-5.14-5.13Z"/></svg>