<svg id="Layer_1" data-name="Layer 1" xmlns="http://www.w3.org/2000/svg" viewBox="0 0 48 48"><defs><style>.cls-1{fill:#fbfbfb;}</style></defs><title>SECURITY</title><path class="cls-1" d="M45,24.06c-.08.91-.13,1.82-.25,2.73a20.52,20.52,0,0,1-5.09,11.1A20.74,20.74,0,0,1,27.6,44.64c-1,.18-2,.21-3,.31l-.19,0h-.74l-1.87-.16a20.47,20.47,0,0,1-9.22-3.27c-.34-.22-.68-.45-1-.7a.39.39,0,0,0-.56,0,3.29,3.29,0,0,1-5-2,3.13,3.13,0,0,1,1.12-3.31,3.13,3.13,0,0,1,3.5-.43A3.12,3.12,0,0,1,12.48,38,3.45,3.45,0,0,1,12,40c.7.46,1.4,1,2.14,1.37a19.21,19.21,0,0,0,11.1,2.58A19.6,19.6,0,0,0,39,37.07a19.43,19.43,0,0,0,4.7-10.2,19.7,19.7,0,0,0-.25-7.22c-.13-.56,0-.84.3-.92s.58.13.66.7c.19,1.25.33,2.52.48,3.78,0,.17,0,.34.07.52Z"/><path class="cls-1" d="M8.7,16.29v-1a1.46,1.46,0,0,1,1.44-1.53c4.63,0,8.6-1.93,12.36-4.42L22.9,9a1.55,1.55,0,0,1,2.17,0,29,29,0,0,0,5.57,3.12,17.94,17.94,0,0,0,7.07,1.57,1.46,1.46,0,0,1,1.54,1.42A31.38,31.38,0,0,1,37.33,27a23.89,23.89,0,0,1-9.55,11.47c-1,.62-2,1.15-3,1.73a1.63,1.63,0,0,1-1.68,0,28.45,28.45,0,0,1-8-6A23.37,23.37,0,0,1,9.54,23.48,33.57,33.57,0,0,1,8.7,16.29ZM24,31.2h2.92a2.45,2.45,0,0,0,2.48-2.47c0-1.76,0-3.51,0-5.26a2.25,2.25,0,0,0-1.09-2,.77.77,0,0,1-.39-.75,3.68,3.68,0,0,0-2.15-3.55,4,4,0,0,0-4.35.5A3.91,3.91,0,0,0,20,20.87a.64.64,0,0,1-.21.46,2.52,2.52,0,0,0-1.26,2.29c0,1.66,0,3.32,0,5a2.48,2.48,0,0,0,2.6,2.61C22.1,31.21,23.05,31.2,24,31.2Z"/><path class="cls-1" d="M34.42,7A18.1,18.1,0,0,0,28.8,4.6c-7.66-1.69-14.24.29-19.62,6A18.91,18.91,0,0,0,4.26,20.82a19.77,19.77,0,0,0,.06,6.69c.06.33,0,.58-.38.67s-.53-.09-.61-.49A20,20,0,0,1,3,23.32,20.63,20.63,0,0,1,10.17,8.2,20.14,20.14,0,0,1,20.63,3.28,20.66,20.66,0,0,1,34.71,6a.41.41,0,0,0,.56-.06,2.95,2.95,0,0,1,4.64,3.23,2.95,2.95,0,0,1-5.62-1.79Z"/><path class="cls-1" d="M21.05,21a2.95,2.95,0,1,1,5.86,0Z"/><path class="cls-1" d="M24,28.57c-1.26.1-1.4-.37-1.13-1.35.09-.36.14-.72.22-1.08A1.53,1.53,0,0,0,23,25a1,1,0,0,1,.32-1.17,1.11,1.11,0,0,1,1.2-.09c.38.22.69.73.5,1.1-.38.74,0,1.41.07,2.1,0,.23.09.46.13.69.1.62-.14.91-.76.91Z"/></svg>