<svg id="Layer_1" data-name="Layer 1" xmlns="http://www.w3.org/2000/svg" viewBox="0 0 48 48"><defs><style>.cls-1{fill:#fbfbfb;}</style></defs><title>Society Office</title><path class="cls-1" d="M19.2,40.49H22c.88,0,1.17.28,1.17,1.16v.59H13.78a7.1,7.1,0,0,1,0-1,.88.88,0,0,1,1-.72c1,0,1.95,0,3,0v-9l-.45,0H12.67c-1.05,0-1.49-.44-1.49-1.5V29h6.53V27H13.66a1.46,1.46,0,0,1-1.51-1.5c0-2.89,0-5.77,0-8.66a6.3,6.3,0,0,1,12.53-.57,6.77,6.77,0,0,1,0,1c0,2.66,0,5.33,0,8A1.52,1.52,0,0,1,23,27h-3.8V29h6.56a13,13,0,0,1-.12,1.58c-.11.55-.62.84-1.32.84H19.2Z"/><path class="cls-1" d="M29.93,23.84c1.3,0,2.54,0,3.79,0a.42.42,0,0,1,.3.21,1.68,1.68,0,0,0,1.71,1.06c.94,0,1.87,0,2.81,0a1.52,1.52,0,0,0,1.5-1,.43.43,0,0,1,.47-.3c1,0,1.93,0,2.93,0V22.48H38.8v.81c0,.29-.13.45-.44.44H35.77c-.33,0-.46-.15-.45-.46s0-.51,0-.81H26.19V20.19h19a5.28,5.28,0,0,1-.05,2.07A5.91,5.91,0,0,0,44.93,25c0,5.62,0,11.24,0,16.87a2.93,2.93,0,0,1,0,.59.63.63,0,0,1-.68.52.64.64,0,0,1-.68-.58,2.74,2.74,0,0,1,0-.5c0-2.47,0-4.93,0-7.4,0-.35-.1-.45-.45-.45H29.94V29.65h.47c1.06,0,2.13,0,3.19,0,.21,0,.36,0,.45.26a1.59,1.59,0,0,0,1.57,1c1,0,1.9,0,2.85,0a1.68,1.68,0,0,0,1.61-1,.58.58,0,0,1,.41-.24c.82,0,1.64,0,2.46,0h.49V28.26H38.8v.86c0,.27-.12.41-.42.41-.88,0-1.76,0-2.63,0-.32,0-.44-.14-.43-.44s0-.53,0-.84H29.93Z"/><path class="cls-1" d="M8.44,5h20v9.37a2.33,2.33,0,0,1-.3,0c-.58,0-1.16,0-1.74,0a.87.87,0,0,1-1-.61A7.54,7.54,0,0,0,18,9.4,7.51,7.51,0,0,0,11.4,14a.56.56,0,0,1-.62.41c-.77,0-1.55,0-2.34,0Z"/><path class="cls-1" d="M33.34,13.77V12.63h.71v1.11h1.38V11.07H40v2.67h1.38v-1.1h.73v1.13h.79a1.21,1.21,0,0,1,1.28,1.35q0,1.59,0,3.18a1.17,1.17,0,0,1-1.24,1.3H32.53a1.19,1.19,0,0,1-1.26-1.33V15.13a1.22,1.22,0,0,1,1.32-1.36Zm.36,2.93c.08.28.15.54.22.8.16.6.33.73.95.73H40c1.19,0,1.38.25,1.73-1.27a.48.48,0,0,1,.32-.27c.48-.09.74-.33.73-.73s-.3-.69-.8-.69H33.5a.7.7,0,0,0-.79.7.73.73,0,0,0,.74.71Z"/><path class="cls-1" d="M2.72,20.18h8v2.27H4.44V41.84a3.37,3.37,0,0,1,0,.55.68.68,0,0,1-.66.61A.69.69,0,0,1,3,42.41a3.82,3.82,0,0,1,0-.59V23c0-.2.11-.47-.23-.54,0,0-.06-.12-.06-.19Z"/><path class="cls-1" d="M8.43,17.22V15.85h2.38l-.08,1.37Z"/><path class="cls-1" d="M26.18,17.23l-.11-1.38h2.37v1.38Z"/><path class="cls-1" d="M35.2,16.14h5v1.22h-5S35.21,16.17,35.2,16.14Z"/></svg>