<svg id="Layer_1" data-name="Layer 1" xmlns="http://www.w3.org/2000/svg" viewBox="0 0 48 48"><defs><style>.cls-1{fill:#fbfbfb;}</style></defs><title>Yoga</title><path class="cls-1" d="M16.88,46c1.57-.87,3.13-1.76,4.71-2.6,4.42-2.35,8.9-4.55,13.51-6.49.59-.25,1.18-.46,1.77-.68A4.43,4.43,0,0,1,42,37.45a4.7,4.7,0,0,1,1.19,5,4.94,4.94,0,0,1-3.88,3.48L39,46Z"/><path class="cls-1" d="M9.78,46a6.66,6.66,0,0,1-2.37-1,5.06,5.06,0,0,1,2.82-9.09,3.74,3.74,0,0,1,1.51.3c2.81,1.19,5.6,2.42,8.39,3.64.47.21.93.45,1.46.71l-3,1.57L11.53,45.8a2,2,0,0,0-.31.2Z"/><path class="cls-1" d="M23.49,15.44a6.4,6.4,0,0,1-5.39-7,6.33,6.33,0,0,1,12.6.23,6.43,6.43,0,0,1-5.4,6.82h6.83c2.79,0,4.57,1.85,4.95,4.6.63,4.5,2.32,8.51,6.17,11.29.88.63,1.75,1.28,2.64,1.93,0,0-.08.07-.11.07-1.61,0-3.23,0-4.84-.08a12.63,12.63,0,0,1-7.59-3.32c-.66-.58-1.23-1.27-1.84-1.91a1.19,1.19,0,0,1-.13-.25l-.12.07c-.21,1.17-.42,2.34-.62,3.51-.29,1.63-.57,3.27-.87,4.9a.7.7,0,0,1-.31.39Q27.08,37.83,24.68,39a.75.75,0,0,1-.57,0q-2.4-1.14-4.78-2.32a.74.74,0,0,1-.33-.47c-.44-2.53-.87-5.07-1.3-7.6a.69.69,0,0,0-.19-.35,1.09,1.09,0,0,1-.17.32A14.61,14.61,0,0,1,6.56,33.33c-1.21,0-2.42,0-3.73,0l.33-.28c1.23-.94,2.51-1.82,3.67-2.83a14.5,14.5,0,0,0,4.39-7.82c.23-1,.4-2,.57-3a4.68,4.68,0,0,1,4.54-3.95c2.22,0,4.44,0,6.66,0Z"/></svg>